<svg xmlns="http://www.w3.org/2000/svg" width="64" height="58" fill="none" viewBox="0 0 64 58"><g clip-path="url(#clip0_1_736)"><path fill="#4ADE80" d="M46.4865 0.117928H0.100693V9.55233H46.4865V0.117928Z"/><path fill="#4ADE80" d="M52.6189 9.55233L42.9505 0H62.2873L52.6189 9.55233Z"/><path fill="#4ADE80" d="M53.3327 8.50707L46.3058 1.81574L24.3525 22.7209L31.3793 29.4122L53.3327 8.50707Z"/><path fill="#4ADE80" d="M27.5391 19.6157L37.5479 29.168H17.5303L27.5391 19.6157Z"/><path fill="#4ADE80" d="M39.9611 34.7107L30.2246 25.2763H49.6975L39.9611 34.7107Z"/><path fill="#4ADE80" d="M41.1194 33.5064L34.0926 26.8151L12.1392 47.7203L19.166 54.4116L41.1194 33.5064Z"/><path fill="#4ADE80" d="M12.2082 47.4472L21.8766 56.9995H2.53984L12.2082 47.4472Z"/><path fill="#4ADE80" d="M21.8785 56.8816L12.142 47.683H31.6149L21.8785 56.8816Z"/><path fill="#4ADE80" d="M63.7829 47.4472H19.284V56.8816H63.7829V47.4472Z"/><path fill="#4ADE80" d="M54.7364 47.684V38.3364L63.8903 47.684H54.7364Z"/><path fill="#4ADE80" d="M9.15561 9.28538L9.1255 18.6329L0.00166321 9.25865L9.15561 9.28538Z"/></g><defs><clipPath id="clip0_1_736"><rect width="64" height="57.078" fill="#fff"/></clipPath></defs></svg>