<svg width="16" height="15" viewBox="0 0 16 15" fill="none" xmlns="http://www.w3.org/2000/svg">
<g clip-path="url(#clip0_1_774)">
<path d="M11.6206 0.0294762H0.0273438V2.38743H11.6206V0.0294762Z" fill="#4ADE80"/>
<path d="M13.1533 2.38743L10.7369 0H15.5697L13.1533 2.38743Z" fill="#4ADE80"/>
<path d="M13.3317 2.12619L11.5755 0.453812L6.08866 5.67867L7.84489 7.35105L13.3317 2.12619Z" fill="#4ADE80"/>
<path d="M6.88506 4.90258L9.38657 7.29001H4.38354L6.88506 4.90258Z" fill="#4ADE80"/>
<path d="M9.98972 8.67531L7.55627 6.31735H12.4232L9.98972 8.67531Z" fill="#4ADE80"/>
<path d="M10.2792 8.37431L8.52301 6.70193L3.03617 11.9268L4.7924 13.5992L10.2792 8.37431Z" fill="#4ADE80"/>
<path d="M3.05339 11.8585L5.46982 14.246H0.636963L3.05339 11.8585Z" fill="#4ADE80"/>
<path d="M5.47031 14.2165L3.03687 11.9175H7.90376L5.47031 14.2165Z" fill="#4ADE80"/>
<path d="M15.9436 11.8585H4.8219V14.2165H15.9436V11.8585Z" fill="#4ADE80"/>
<path d="M13.6826 11.9177V9.58147L15.9704 11.9177H13.6826Z" fill="#4ADE80"/>
<path d="M2.29048 2.32071L2.28296 4.65696L0.00262451 2.31403L2.29048 2.32071Z" fill="#4ADE80"/>
</g>
<defs>
<clipPath id="clip0_1_774">
<rect width="16" height="14.2656" fill="white"/>
</clipPath>
</defs>
</svg>
