<svg width="32" height="29" viewBox="0 0 32 29" fill="none" xmlns="http://www.w3.org/2000/svg">
<g clip-path="url(#clip0_1_755)">
<path d="M23.2413 0.0589485H0.054718V4.77486H23.2413V0.0589485Z" fill="#4ADE80"/>
<path d="M26.3066 4.77486L21.4738 0H31.1395L26.3066 4.77486Z" fill="#4ADE80"/>
<path d="M26.6634 4.25237L23.151 0.907623L12.1773 11.3573L15.6898 14.7021L26.6634 4.25237Z" fill="#4ADE80"/>
<path d="M13.7702 9.80516L18.7732 14.58H8.76712L13.7702 9.80516Z" fill="#4ADE80"/>
<path d="M19.9794 17.3506L15.1125 12.6347H24.8463L19.9794 17.3506Z" fill="#4ADE80"/>
<path d="M20.5584 16.7486L17.046 13.4039L6.07231 23.8536L9.58477 27.1983L20.5584 16.7486Z" fill="#4ADE80"/>
<path d="M6.1068 23.7171L10.9397 28.492H1.27396L6.1068 23.7171Z" fill="#4ADE80"/>
<path d="M10.9406 28.433L6.07373 23.835H15.8075L10.9406 28.433Z" fill="#4ADE80"/>
<path d="M31.8871 23.7171H9.64374V28.433H31.8871V23.7171Z" fill="#4ADE80"/>
<path d="M27.3651 23.8355V19.1629L31.9408 23.8355H27.3651Z" fill="#4ADE80"/>
<path d="M4.58094 4.64142L4.56589 9.31392L0.00521851 4.62806L4.58094 4.64142Z" fill="#4ADE80"/>
</g>
<defs>
<clipPath id="clip0_1_755">
<rect width="32" height="28.5312" fill="white"/>
</clipPath>
</defs>
</svg>
