<svg width="4" height="4" viewBox="0 0 4 4" fill="none" xmlns="http://www.w3.org/2000/svg">
<g clip-path="url(#clip0_1_812)">
<path d="M2.90418 0.00735855H0.0090332V0.596202H2.90418V0.00735855Z" fill="#4ADE80"/>
<path d="M3.28692 0.596204L2.68347 0H3.89036L3.28692 0.596204Z" fill="#4ADE80"/>
<path d="M3.33152 0.530963L2.89294 0.113327L1.52274 1.41811L1.96131 1.83575L3.33152 0.530963Z" fill="#4ADE80"/>
<path d="M1.72162 1.2243L2.34631 1.82051H1.09692L1.72162 1.2243Z" fill="#4ADE80"/>
<path d="M2.49686 2.16645L1.88916 1.57761H3.10455L2.49686 2.16645Z" fill="#4ADE80"/>
<path d="M2.56919 2.09128L2.13062 1.67365L0.760408 2.97843L1.19898 3.39607L2.56919 2.09128Z" fill="#4ADE80"/>
<path d="M0.764699 2.96139L1.36815 3.55759H0.161255L0.764699 2.96139Z" fill="#4ADE80"/>
<path d="M1.36831 3.55023L0.76062 2.97611H1.97601L1.36831 3.55023Z" fill="#4ADE80"/>
<path d="M3.98368 2.96139H1.2063V3.55023H3.98368V2.96139Z" fill="#4ADE80"/>
<path d="M3.41907 2.97617V2.39275L3.9904 2.97617H3.41907Z" fill="#4ADE80"/>
<path d="M0.574146 0.579542L0.572267 1.16296L0.00280762 0.577873L0.574146 0.579542Z" fill="#4ADE80"/>
</g>
<defs>
<clipPath id="clip0_1_812">
<rect width="4" height="3.5625" fill="white"/>
</clipPath>
</defs>
</svg>
