<svg width="8" height="8" viewBox="0 0 8 8" fill="none" xmlns="http://www.w3.org/2000/svg">
<g clip-path="url(#clip0_1_793)">
<path d="M5.80836 0.0147209H0.0180664V1.19241H5.80836V0.0147209Z" fill="#4ADE80"/>
<path d="M6.57384 1.19241L5.36694 0H7.78073L6.57384 1.19241Z" fill="#4ADE80"/>
<path d="M6.66292 1.06193L5.78577 0.226658L3.04535 2.83623L3.9225 3.6715L6.66292 1.06193Z" fill="#4ADE80"/>
<path d="M3.44317 2.4486L4.69256 3.64101H2.19379L3.44317 2.4486Z" fill="#4ADE80"/>
<path d="M4.99377 4.33291L3.77838 3.15522H6.20916L4.99377 4.33291Z" fill="#4ADE80"/>
<path d="M5.13838 4.18257L4.26123 3.3473L1.52082 5.95687L2.39797 6.79214L5.13838 4.18257Z" fill="#4ADE80"/>
<path d="M1.5294 5.92278L2.73629 7.11518H0.32251L1.5294 5.92278Z" fill="#4ADE80"/>
<path d="M2.73657 7.10047L1.52118 5.95222H3.95196L2.73657 7.10047Z" fill="#4ADE80"/>
<path d="M7.96741 5.92278H2.41266V7.10046H7.96741V5.92278Z" fill="#4ADE80"/>
<path d="M6.83813 5.95234V4.78548L7.9808 5.95234H6.83813Z" fill="#4ADE80"/>
<path d="M1.14835 1.15908L1.14459 2.32593L0.00567627 1.15575L1.14835 1.15908Z" fill="#4ADE80"/>
</g>
<defs>
<clipPath id="clip0_1_793">
<rect width="8" height="7.125" fill="white"/>
</clipPath>
</defs>
</svg>
