<svg width="407" height="363" viewBox="0 0 407 363" fill="none" xmlns="http://www.w3.org/2000/svg">
<rect width="407" height="363" fill="#F5F5F5"/>
<rect x="0.629868" y="0.75" width="295" height="60" fill="#4ADE80"/>
<path d="M334.63 60.75L273.142 0L396.118 0L334.63 60.75Z" fill="#4ADE80"/>
<rect width="61.7089" height="192.792" transform="matrix(0.724184 0.689607 -0.724184 0.689607 294.481 11.5476)" fill="#4ADE80"/>
<path d="M175.13 124.75L238.783 185.5H111.477L175.13 124.75Z" fill="#4ADE80"/>
<path d="M254.13 220.75L192.209 160.75H316.051L254.13 220.75Z" fill="#4ADE80"/>
<rect width="61.7089" height="192.792" transform="matrix(0.724184 0.689607 -0.724184 0.689607 216.808 170.536)" fill="#4ADE80"/>
<path d="M77.6299 301.75L139.118 362.5H16.1421L77.6299 301.75Z" fill="#4ADE80"/>
<path d="M139.13 361.75L77.2091 303.25H201.051L139.13 361.75Z" fill="#4ADE80"/>
<rect x="122.63" y="301.75" width="283" height="60" fill="#4ADE80"/>
<path d="M348.097 303.256L348.097 243.808L406.313 303.256L348.097 303.256Z" fill="#4ADE80"/>
<path d="M58.2164 59.0523L58.0249 118.5L6.83833e-06 58.8823L58.2164 59.0523Z" fill="#4ADE80"/>
</svg>
